<svg width="45" height="46" viewBox="0 0 45 46" fill="none" xmlns="http://www.w3.org/2000/svg">
<g clip-path="url(#clip0_2020_211)">
<path fill-rule="evenodd" clip-rule="evenodd" d="M7.5 23C7.50027 20.0492 8.33346 17.1611 9.8996 14.6824C11.4657 12.2036 13.6983 10.2395 16.3294 9.02559C18.9605 7.81171 21.8783 7.39966 24.7328 7.8389C27.5873 8.27814 30.2572 9.55001 32.4221 11.5019C34.587 13.4538 36.155 16.0027 36.9378 18.8429C37.7207 21.6831 37.6852 24.6939 36.8357 27.5141C35.9861 30.3342 34.3586 32.8438 32.1483 34.7418C29.9381 36.6399 27.239 37.8456 24.375 38.2145V26.8333H28.125C28.6223 26.8333 29.0992 26.6314 29.4508 26.2719C29.8025 25.9125 30 25.425 30 24.9166C30 24.4083 29.8025 23.9208 29.4508 23.5614C29.0992 23.2019 28.6223 23 28.125 23H24.375V19.1666C24.375 18.6583 24.5725 18.1708 24.9242 17.8114C25.2758 17.4519 25.7527 17.25 26.25 17.25H27.1875C27.6848 17.25 28.1617 17.048 28.5133 16.6886C28.865 16.3292 29.0625 15.8416 29.0625 15.3333C29.0625 14.825 28.865 14.3375 28.5133 13.978C28.1617 13.6186 27.6848 13.4166 27.1875 13.4166H26.25C24.7582 13.4166 23.3274 14.0224 22.2725 15.1008C21.2176 16.1791 20.625 17.6417 20.625 19.1666V23H16.875C16.3777 23 15.9008 23.2019 15.5492 23.5614C15.1975 23.9208 15 24.4083 15 24.9166C15 25.425 15.1975 25.9125 15.5492 26.2719C15.9008 26.6314 16.3777 26.8333 16.875 26.8333H20.625V38.2145C17.0001 37.7472 13.6665 35.9437 11.25 33.1425C8.83348 30.3413 7.50006 26.7348 7.5 23ZM22.5 42.1666C32.8556 42.1666 41.25 33.5857 41.25 23C41.25 12.4142 32.8556 3.83331 22.5 3.83331C12.1444 3.83331 3.75 12.4142 3.75 23C3.75 33.5857 12.1444 42.1666 22.5 42.1666Z" fill="black"/>
</g>
<defs>
<clipPath id="clip0_2020_211">
<rect width="45" height="46" fill="white"/>
</clipPath>
</defs>
</svg>
