<svg width="46" height="46" viewBox="0 0 46 46" fill="none" xmlns="http://www.w3.org/2000/svg">
<path d="M14.95 3.83331H31.05C37.1834 3.83331 42.1667 8.81665 42.1667 14.95V31.05C42.1667 33.9983 40.9955 36.8259 38.9107 38.9107C36.8259 40.9954 33.9984 42.1666 31.05 42.1666H14.95C8.81671 42.1666 3.83337 37.1833 3.83337 31.05V14.95C3.83337 12.0017 5.00459 9.17409 7.08937 7.08931C9.17415 5.00453 12.0017 3.83331 14.95 3.83331ZM14.5667 7.66665C12.7367 7.66665 10.9817 8.39361 9.68767 9.68761C8.39367 10.9816 7.66671 12.7367 7.66671 14.5666V31.4333C7.66671 35.2475 10.7525 38.3333 14.5667 38.3333H31.4334C33.2634 38.3333 35.0184 37.6063 36.3124 36.3124C37.6064 35.0184 38.3334 33.2633 38.3334 31.4333V14.5666C38.3334 10.7525 35.2475 7.66665 31.4334 7.66665H14.5667ZM33.0625 10.5416C33.698 10.5416 34.3073 10.7941 34.7567 11.2434C35.206 11.6927 35.4584 12.3021 35.4584 12.9375C35.4584 13.5729 35.206 14.1823 34.7567 14.6316C34.3073 15.0809 33.698 15.3333 33.0625 15.3333C32.4271 15.3333 31.8177 15.0809 31.3684 14.6316C30.9191 14.1823 30.6667 13.5729 30.6667 12.9375C30.6667 12.3021 30.9191 11.6927 31.3684 11.2434C31.8177 10.7941 32.4271 10.5416 33.0625 10.5416ZM23 13.4166C25.5417 13.4166 27.9793 14.4263 29.7765 16.2235C31.5737 18.0208 32.5834 20.4583 32.5834 23C32.5834 25.5416 31.5737 27.9792 29.7765 29.7764C27.9793 31.5736 25.5417 32.5833 23 32.5833C20.4584 32.5833 18.0208 31.5736 16.2236 29.7764C14.4264 27.9792 13.4167 25.5416 13.4167 23C13.4167 20.4583 14.4264 18.0208 16.2236 16.2235C18.0208 14.4263 20.4584 13.4166 23 13.4166ZM23 17.25C21.475 17.25 20.0125 17.8558 18.9342 18.9341C17.8558 20.0124 17.25 21.475 17.25 23C17.25 24.525 17.8558 25.9875 18.9342 27.0658C20.0125 28.1442 21.475 28.75 23 28.75C24.525 28.75 25.9876 28.1442 27.0659 27.0658C28.1442 25.9875 28.75 24.525 28.75 23C28.75 21.475 28.1442 20.0124 27.0659 18.9341C25.9876 17.8558 24.525 17.25 23 17.25Z" fill="black"/>
</svg>
