<?xml version="1.0" encoding="utf-8"?>
<!-- Generator: Adobe Illustrator 27.4.0, SVG Export Plug-In . SVG Version: 6.00 Build 0)  -->
<svg version="1.1" id="Layer_1" xmlns="http://www.w3.org/2000/svg" xmlns:xlink="http://www.w3.org/1999/xlink" x="0px" y="0px"
	 viewBox="0 0 240 118" style="enable-background:new 0 0 240 118;" xml:space="preserve">
<style type="text/css">
	.st0{fill:#FFFFFF;}
</style>
<g>
	<path class="st0" d="M62.08,95.49c2.59,0.99,4.96,1.91,7.34,2.8c4.11,1.53,8.23,3.01,12.33,4.55c0.65,0.24,1.27,0.61,1.84,1.01
		c0.73,0.52,0.99,1.28,0.67,2.14c-0.31,0.86-0.99,1.27-1.89,1.2c-0.48-0.04-0.96-0.19-1.42-0.35c-1.72-0.6-3.5-1.09-5.14-1.85
		c-2.78-1.29-5.62-1.41-8.61-1.09c-2.64,0.28-5.32,0.29-7.98,0.35c-2.94,0.07-5.8-0.48-8.6-1.34c-3.11-0.96-6.23-0.72-9.38-0.3
		c-3.88,0.52-7.64,1.44-11.28,2.9c-1.03,0.42-1.92,0.15-2.44-0.62c-0.51-0.75-0.44-1.73,0.36-2.47c0.81-0.76,1.7-1.47,2.64-2.06
		c3.84-2.38,7.72-4.7,11.57-7.06c0.59-0.36,1.26-0.72,1.64-1.26c4.54-6.31,9.85-11.97,15.04-17.72c3.3-3.65,6.35-7.48,8.99-11.65
		c2.94-4.64,6.55-8.68,10.95-11.98c4.41-3.31,8.29-7.12,11.6-11.53c2.35-3.13,5.07-5.91,8.23-8.24c2.31-1.7,3.91-3.83,4.69-6.64
		c0.76-2.73,2.36-5.06,4.06-7.31c1.65-2.18,3.25-4.4,4.79-6.66c0.63-0.92,1.11-1.94,1.58-2.95c0.76-1.65,2.47-2.33,3.88-1.21
		c1.2,0.96,2.35,2.15,3.1,3.48c2.06,3.68,4.56,6.99,7.55,9.93c1.95,1.92,4.08,3.65,6.02,5.57c2.11,2.1,4.06,4.33,5.68,6.87
		c1.14,1.78,2.78,3.24,4.2,4.84c1.54,1.73,3.11,3.43,4.6,5.2c1.2,1.43,2.55,2.57,4.38,3.13c1.97,0.6,3.51,1.8,4.86,3.36
		c1.25,1.46,2.69,2.75,4.05,4.12c1.58,1.59,3.22,3.13,4.73,4.78c1.53,1.68,3.19,2.96,5.56,3.28c1.06,0.14,2.04,0.85,3.08,1.24
		c0.46,0.17,1,0.31,1.47,0.23c0.53-0.09,1.06-0.38,1.51-0.7c2.25-1.55,4.55-3.04,6.69-4.74c1.86-1.48,3.6-3.13,5.24-4.84
		c2.39-2.51,5.25-4.31,8.22-5.98c1.77-0.99,4.16-0.33,3.75,2.51c-0.19,1.31-0.13,2.66-0.29,3.98c-0.23,1.87-1.2,3.15-3.11,3.67
		c-1.42,0.39-2.82,0.86-4.17,1.43c-1.15,0.49-2.32,1.05-3.3,1.81c-2.21,1.71-4.56,3.14-7.22,4.04c-2.21,0.75-3.99,2.16-5.74,3.64
		c-1.23,1.04-2.16,1.04-3.52,0.17c-0.61-0.39-1.27-0.75-1.97-0.92c-4.28-1.04-7.85-3.5-11.57-5.67c-3.89-2.27-7.29-5.07-9.93-8.78
		c-1.68-2.35-4.02-3.99-6.53-5.39c-4.37-2.43-8.06-5.65-11.43-9.34c-2.11-2.32-4.6-4.31-6.94-6.44c-3.01-2.74-6.02-5.48-8.43-8.8
		c-0.14-0.19-0.31-0.37-0.56-0.66c-0.63,1.75-1.2,3.36-1.79,4.95c-1.66,4.51-3.96,8.67-7.1,12.33c-1.36,1.6-2.38,3.36-2.99,5.38
		c-1.15,3.83-3.63,6.78-6.59,9.33c-4.45,3.84-7.99,8.3-10.4,13.7c-1.98,4.44-5.08,7.97-9.23,10.67c-2.35,1.53-4.46,3.52-6.42,5.55
		c-3.14,3.25-6.08,6.7-9.09,10.08C63.35,93.85,62.82,94.58,62.08,95.49z"/>
	<path class="st0" d="M107.12,74.68c2.32-0.15,4.48-0.31,6.65-0.41c2.54-0.11,5.05,0.12,7.46,1.02c6.27,2.33,8.18,8.12,7.52,13.34
		c-0.72,5.7-3.86,9.98-8.54,13.04c-7.05,4.6-14.91,5.43-23.05,4.2c-2.36-0.36-4.25-1.63-5.16-4c-0.48-1.26-0.2-2.35,0.75-2.86
		c0.96-0.51,1.98-0.28,2.71,0.87c1.04,1.65,2.66,2.03,4.35,2.13c5.49,0.33,10.89-0.14,15.91-2.63c4.02-1.99,7.08-4.96,8.37-9.37
		c0.41-1.41,0.58-3,0.4-4.45c-0.57-4.47-3.49-6.91-8.4-6.97c-3.08-0.04-6.16,0.28-9.24,0.48c-3.15,0.21-4.86-1.78-4.07-4.82
		c0.12-0.47,0.27-0.96,0.49-1.38c4.92-9.29,11.42-17.06,21.2-21.56c2.47-1.14,5.11-1.7,7.89-1.24c3.92,0.65,6.16,3.76,5.47,7.69
		c-0.68,3.92-2.61,7.3-4.79,10.54c-0.94,1.39-2.03,2.69-3.16,3.93c-0.4,0.44-1.11,0.73-1.72,0.83c-0.87,0.15-1.6-0.3-1.95-1.13
		c-0.36-0.87-0.05-1.6,0.61-2.27c3.47-3.54,5.73-7.75,6.77-12.59c0.36-1.65-0.33-2.71-2.02-2.74c-1.67-0.03-3.43,0.23-5.02,0.75
		c-3.15,1.02-5.78,2.99-8.24,5.16c-4.1,3.63-7.53,7.83-10.26,12.58C107.72,73.41,107.46,74.01,107.12,74.68z"/>
	<path class="st0" d="M191.77,74.96c-0.45,0.56-0.92,1.1-1.34,1.68c-2.51,3.49-4.37,7.34-6.14,11.24c-0.22,0.48-0.46,0.95-0.78,1.36
		c-0.73,0.93-1.79,1.21-2.71,0.79c-0.96-0.44-1.43-1.48-1.14-2.67c0.33-1.36,0.83-2.69,1.07-4.06c0.4-2.24,0.65-4.5,0.94-6.75
		c0.04-0.29-0.05-0.6-0.1-1.19c-0.66,0.65-1.18,1.09-1.61,1.6c-3.04,3.64-4.69,7.93-5.81,12.47c-0.19,0.78-0.31,1.58-0.38,2.38
		c-0.1,1.13-0.67,1.86-1.66,1.97c-0.95,0.11-1.94-0.59-2.14-1.64c-0.11-0.57-0.14-1.22,0-1.77c0.77-2.91,1.63-5.79,2.42-8.69
		c0.67-2.46,1.24-4.95,1.97-7.4c0.22-0.76,0.66-1.59,1.25-2.07c0.81-0.66,1.72-0.25,2.44,0.41c4.92-2.82,6.42-2.33,7.96,2.74
		c0.23-0.29,0.4-0.51,0.59-0.72c1.05-1.22,1.99-2.56,3.19-3.61c2.61-2.28,5.44-1.27,6.24,2.1c0.72,3.01,0.42,6-0.27,8.96
		c-0.5,2.15-1.18,4.25-1.81,6.36c-0.14,0.46-0.37,0.91-0.61,1.33c-0.72,1.21-1.86,1.62-2.92,1.09c-1.01-0.5-1.29-1.62-0.89-2.92
		c0.76-2.44,1.58-4.86,2.14-7.35c0.4-1.78,0.4-3.66,0.59-5.49C192.1,75.07,191.93,75.02,191.77,74.96z"/>
	<path class="st0" d="M154,74.86c2.9-2.03,4.38-1.69,6.29,1.46c0.53-0.71,1.02-1.42,1.57-2.07c0.47-0.56,0.98-1.11,1.52-1.59
		c1.21-1.08,2.61-1.72,4.24-1.14c1.7,0.61,2.41,2.05,2.72,3.71c0.45,2.4-0.01,4.76-0.48,7.09c-0.6,3.06-1.32,6.09-2.07,9.12
		c-0.16,0.63-0.58,1.42-1.1,1.67c-0.59,0.28-1.52,0.25-2.15-0.02c-0.95-0.41-1.11-1.41-0.92-2.36c0.25-1.31,0.63-2.59,0.89-3.89
		c0.58-3.02,1.13-6.05,1.66-9.08c0.09-0.5,0.01-1.03,0.01-1.88c-0.51,0.54-0.83,0.83-1.09,1.16c-2.57,3.4-4.22,7.25-5.5,11.28
		c-0.14,0.43-0.26,0.87-0.44,1.29c-0.48,1.1-1.47,1.61-2.55,1.35c-1-0.25-1.7-1.27-1.54-2.44c0.31-2.32,0.7-4.64,1.03-6.96
		c0.1-0.71,0.1-1.44-0.09-2.27c-0.29,0.44-0.6,0.88-0.85,1.34c-2.65,4.72-4.18,9.85-5.44,15.07c-0.33,1.36-1.12,2.11-2.18,1.95
		c-1.1-0.17-1.74-1.09-1.66-2.43c0.02-0.31,0.08-0.62,0.16-0.93c0.32-1.33,0.6-2.67,0.98-3.98c0.64-2.18,1.45-4.32,2-6.52
		s0.87-4.45,1.29-6.68c0.04-0.24,0.05-0.49,0.07-0.73C150.53,74.26,152.29,73.34,154,74.86z"/>
	<path class="st0" d="M210.53,59.61c-0.68,0-1.3,0.01-1.92,0c-0.63-0.01-1.27,0.04-1.89-0.06c-1.12-0.2-1.88-1.18-1.78-2.15
		c0.11-1.05,1.07-1.78,2.26-1.78c1.08,0,2.17-0.08,3.25-0.08c0.7,0,0.98-0.34,1.09-0.99c0.52-3.11,1.08-6.21,1.62-9.32
		c0.04-0.24,0.06-0.49,0.11-0.73c0.21-1,0.86-1.59,1.79-1.62c0.96-0.02,1.83,0.57,1.86,1.62c0.04,1.53-0.13,3.07-0.32,4.59
		c-0.24,1.91-0.59,3.8-0.93,5.91c0.74-0.12,1.38-0.22,2.01-0.34c1.19-0.23,2.16,0.23,2.5,1.19c0.35,0.97-0.03,2.11-1.11,2.55
		c-1.02,0.41-2.15,0.57-3.25,0.73c-0.61,0.09-0.92,0.23-1.01,0.9c-0.71,4.96-1.57,9.9-2.15,14.87c-0.22,1.88,0.01,3.85,0.3,5.74
		c0.36,2.31,1.94,3.79,4.11,4.5c0.72,0.24,1.64,0.09,2.42-0.09c1.2-0.28,2.1-0.14,2.65,0.64c0.55,0.79,0.46,1.8-0.31,2.59
		c-1.32,1.36-2.99,1.64-4.76,1.31c-4.62-0.86-8.02-4.67-8.61-9.43c-0.53-4.24,0.12-8.39,0.75-12.55
		C209.61,64.97,210.08,62.32,210.53,59.61z"/>
	<path class="st0" d="M131.42,88.56c0.28-2.47,0.57-4.87,0.83-7.27c0.06-0.59,0.07-1.18,0.1-1.77c0.02-0.38,0.01-0.78,0.08-1.15
		c0.24-1.26,1.05-1.99,2.11-1.94c1.07,0.05,1.98,0.97,1.92,2.23c-0.09,1.92-0.44,3.83-0.51,5.75c-0.08,2.2-0.02,4.4,0.07,6.6
		c0.02,0.46,0.43,0.91,0.67,1.36c0.47-0.25,1.08-0.39,1.4-0.77c0.76-0.9,1.57-1.84,2.05-2.91c1.7-3.8,3.28-7.65,4.9-11.48
		c0.3-0.71,0.54-1.46,0.95-2.09c0.52-0.79,1.31-1.16,2.29-0.81c0.97,0.34,1.44,1.12,1.25,2.06c-0.32,1.57-0.68,3.16-1.3,4.63
		c-1.45,3.45-2.95,6.89-4.65,10.22c-0.76,1.49-1.9,2.9-3.16,4.01c-3.31,2.91-7.32,1.6-8.4-2.67
		C131.68,91.25,131.6,89.87,131.42,88.56z"/>
	<path class="st0" d="M198.14,87.87c0.38-2.26,0.85-4.98,1.31-7.71c0.49-2.9,0.94-5.8,1.51-8.68c0.13-0.66,0.5-1.47,1.02-1.81
		c0.46-0.3,1.37-0.24,1.92,0.01c0.88,0.41,1.05,1.36,0.92,2.27c-0.47,3.33-0.97,6.65-1.45,9.97c-0.33,2.25-0.65,4.5-0.99,6.75
		c-0.24,1.55-1.39,2.39-2.73,2.04C198.67,90.46,198.11,89.6,198.14,87.87z"/>
	<path class="st0" d="M203.91,66.28c-0.97,0.01-1.81-0.81-1.84-1.79c-0.04-1.02,0.81-1.91,1.82-1.92c0.97-0.01,1.81,0.81,1.85,1.79
		C205.77,65.39,204.93,66.27,203.91,66.28z"/>
</g>
</svg>
