<svg width="46" height="46" viewBox="0 0 46 46" fill="none" xmlns="http://www.w3.org/2000/svg">
<g clip-path="url(#clip0_2021_223)">
<path fill-rule="evenodd" clip-rule="evenodd" d="M34.1492 13.3956C33.4726 12.4219 31.6633 11.0534 28.7327 11.6437C27.023 11.9868 26.0015 12.8321 25.3517 13.9476C24.6598 15.1359 24.3244 16.7516 24.3244 18.6319C24.3244 19.1402 24.1224 19.6277 23.763 19.9872C23.4036 20.3466 22.916 20.5486 22.4077 20.5486C17.8729 20.5486 13.5565 19.2011 9.92446 15.5576C9.65025 17.0359 9.54224 18.5402 9.60246 20.0426C9.70405 22.1241 10.2005 24.2113 11.3792 25.9996C12.5388 27.7571 14.4459 29.3671 17.6352 30.3791C17.9477 30.4783 18.2296 30.6559 18.4538 30.8951C18.6781 31.1343 18.8373 31.427 18.9161 31.7452C18.9949 32.0634 18.9908 32.3966 18.9042 32.7128C18.8175 33.029 18.6511 33.3177 18.421 33.5512C17.3994 34.5991 16.2416 35.5048 14.9787 36.2441C17.0104 36.455 18.9692 36.4703 20.7862 36.3055C24.4662 35.972 27.3968 34.9197 29.2291 33.4305C33.0874 30.3025 35.1516 25.6373 34.7683 17.8211C34.7031 16.537 35.9432 15.1512 36.5412 14.099C35.6385 14.2676 34.7338 14.237 34.1492 13.3956ZM8.80513 9.55265C9.15215 9.51232 9.50359 9.5676 9.82147 9.71252C10.1393 9.85744 10.4116 10.0865 10.6087 10.3749C13.4377 14.513 16.834 16.2341 20.6041 16.6251C20.7881 15.0132 21.2232 13.4205 22.0416 12.0175C23.2415 9.95898 25.1926 8.44481 27.9795 7.88515C31.832 7.11081 34.7645 8.50615 36.4645 10.2139L39.8992 9.57181C40.2586 9.50447 40.6298 9.54134 40.9689 9.67809C41.3081 9.81483 41.601 10.0457 41.8132 10.3436C42.0254 10.6414 42.1479 10.9937 42.1664 11.3589C42.1849 11.7241 42.0985 12.0869 41.9175 12.4046L38.6208 18.1968C38.9217 26.5554 36.5987 32.3897 31.646 36.409C29.0202 38.5403 25.2597 39.7497 21.1331 40.1235C16.974 40.4991 12.2724 40.0449 7.59954 38.6802C7.20029 38.5638 6.84975 38.3206 6.60082 37.9874C6.35189 37.6543 6.21809 37.2492 6.2196 36.8333C6.22112 36.4174 6.35787 36.0133 6.60922 35.6819C6.86056 35.3506 7.21287 35.1099 7.61296 34.9964C9.96279 34.3275 11.753 33.7506 13.3687 32.7405C11.0706 31.5215 9.37821 29.9268 8.18029 28.1098C6.51663 25.5836 5.89946 22.7661 5.77679 20.2266C5.65413 17.687 6.02021 15.3333 6.40738 13.6371C6.62779 12.6691 6.88463 11.6993 7.23921 10.7716C7.36429 10.4446 7.57654 10.1581 7.85293 9.94325C8.12933 9.72835 8.45739 9.59326 8.80513 9.55265Z" fill="black"/>
</g>
<defs>
<clipPath id="clip0_2021_223">
<rect width="46" height="46" fill="white"/>
</clipPath>
</defs>
</svg>
